<svg id="ELOTECH_-_LOGO" data-name="ELOTECH - LOGO" xmlns="http://www.w3.org/2000/svg" width="209.117" height="43.804" viewBox="0 0 209.117 43.804">
  <path id="Caminho_132" data-name="Caminho 132" d="M261.67,255.912V244.641h-7.141v43.784h7.141V263.053h7.111l4.095-7.141Z" transform="translate(-165.745 -244.622)" fill="#2e2e2d"/>
  <path id="Caminho_133" data-name="Caminho 133" d="M426.515,255.878a16.181,16.181,0,0,0-9.127,2.8V244.607h-7.141v43.784h7.141V272.438a9.315,9.315,0,0,1,8.947-9.417,9.117,9.117,0,0,1,9.288,9.115v16.255h7.141V272.567c0-8.939-7.308-16.684-16.248-16.689" transform="translate(-233.646 -244.607)" fill="#2e2e2d"/>
  <path id="Caminho_134" data-name="Caminho 134" d="M202.67,264.6a16.258,16.258,0,1,0,16.258,16.258A16.258,16.258,0,0,0,202.67,264.6m1.185,25.3a9.12,9.12,0,1,1,7.857-7.858,9.124,9.124,0,0,1-7.857,7.858" transform="translate(-136.042 -253.324)" fill="#2e2e2d"/>
  <path id="Caminho_135" data-name="Caminho 135" d="M129.221,277.278a16.26,16.26,0,1,0-15.865,19.827h7.921l4.094-7.142H113.356a9.118,9.118,0,1,1,8.4-12.685c.062.146.109.3.164.446h-8.562a3.123,3.123,0,1,0,0,6.247h15.952a16.227,16.227,0,0,0-.087-6.693" transform="translate(-97.096 -253.32)" fill="#2e2e2d"/>
  <path id="Caminho_136" data-name="Caminho 136" d="M318.222,277.278a16.26,16.26,0,1,0-15.865,19.827h7.92l4.1-7.142H302.357a9.118,9.118,0,1,1,8.4-12.685c.061.146.109.3.163.446h-8.562a3.123,3.123,0,1,0,0,6.247h15.952a16.212,16.212,0,0,0-.086-6.693" transform="translate(-179.51 -253.32)" fill="#2e2e2d"/>
  <path id="Caminho_137" data-name="Caminho 137" d="M360.393,280.859a9.125,9.125,0,0,1,9.121-9.12h6.432l4.094-7.139H369.514a16.256,16.256,0,1,0,0,32.511h6.432l4.094-7.138H369.514a9.119,9.119,0,0,1-9.121-9.113" transform="translate(-208.794 -253.325)" fill="#2e2e2d"/>
  <rect id="Retângulo_757" data-name="Retângulo 757" width="7.141" height="43.784" transform="translate(37.874 0)" fill="#2e2e2d"/>
</svg>
